<svg width="211" height="245" viewBox="0 0 211 245" fill="none" xmlns="http://www.w3.org/2000/svg">
<g clip-path="url(#clip0_130_2)">
<path d="M77.7632 38.1661V99.8976H93.1983V65.485H112.494V99.8976H128.105V38.1661H112.494V59.2243H93.3743V38.1661H77.7632Z" fill="#BC9A45"/>
<path d="M113.034 145.241V145.162H80.539H80.476L80.5212 145.902H80.539V150.682H108.779L79.4297 206.834H125.846V206.803H126.176V201.284H97.437L126.965 145.277L113.034 145.241Z" fill="#BC9A45"/>
<path d="M80.5255 145.983L80.5207 145.902H80.4919L80.5255 145.983Z" fill="#BD9931"/>
<path d="M9.51553 118.675H4.16759V113.047H0V128.082H4.16759V122.368H9.51553V128.082H13.6831V113.047H9.51553V118.675Z" fill="#BC9A45"/>
<path d="M26.8479 122.154H34.0657V118.868H26.8479V116.592H34.8181V113.047H22.7239V128.082H34.9247V124.538H26.8479V122.154Z" fill="#BC9A45"/>
<path d="M47.5517 119.834L53.9751 128.082H57.6276V113.047H53.502V120.995L47.316 113.047H43.4277V128.082H47.5517V119.834Z" fill="#BC9A45"/>
<path d="M79.491 124.559H71.9503L79.491 116.077V113.047H66.4522V116.569H73.7346L66.1938 125.053V128.082H79.491V124.559Z" fill="#BC9A45"/>
<path d="M98.0908 125.397L99.1872 128.082H103.655L97.2528 112.94H93.2354L86.833 128.082H91.2154L92.2891 125.397H98.0908ZM95.2118 117.88L96.8878 122.154H93.5147L95.2118 117.88Z" fill="#BC9A45"/>
<path d="M137.265 122.347H140.23V124.173C139.607 124.58 138.835 124.796 137.824 124.796C135.441 124.796 133.742 123.056 133.742 120.63V120.586C133.742 118.289 135.418 116.463 137.587 116.463C139.069 116.463 140.143 116.978 141.217 117.88L143.666 114.937C142.077 113.563 140.208 112.747 137.566 112.747C132.904 112.747 129.468 116.184 129.468 120.565V120.609C129.468 125.163 132.97 128.384 137.653 128.384C140.38 128.384 142.594 127.375 144.183 126.064V119.299H137.265V122.347Z" fill="#BC9A45"/>
<path d="M160.482 112.747C155.841 112.747 152.362 116.248 152.362 120.565V120.609C152.362 124.926 155.799 128.384 160.438 128.384C165.077 128.384 168.559 124.882 168.559 120.565V120.522C168.559 116.205 165.121 112.747 160.482 112.747ZM164.306 120.607C164.306 122.777 162.78 124.624 160.482 124.624C158.205 124.624 156.637 122.735 156.637 120.565V120.522C156.637 118.352 158.163 116.505 160.44 116.505C162.738 116.505 164.306 118.394 164.306 120.564V120.607Z" fill="#BC9A45"/>
<path d="M181.273 113.047H177.105V128.082H188.555V124.43H181.273V113.047Z" fill="#BC9A45"/>
<path d="M202.515 113.047H196.715V128.08H202.429C207.842 128.08 211 124.859 211 120.52V120.476C211 116.138 207.885 113.047 202.515 113.047ZM206.724 120.586C206.724 123.013 205.071 124.386 202.578 124.386H200.881V116.741H202.578C205.071 116.741 206.724 118.137 206.724 120.543V120.586Z" fill="#BC9A45"/>
<path d="M53.9252 240.062C53.2761 240.062 52.7497 239.535 52.7497 238.886V232.955H123.854V228.016H52.7497V152.871H47.8119V228.016H43.2923C42.6432 228.016 42.1168 227.49 42.1168 226.841V140.826H37.179V228.199C37.179 230.826 39.3088 232.955 41.9359 232.955H47.8135V240.244C47.8135 242.871 49.9433 245 52.5704 245H134.49V240.062H53.9252Z" fill="url(#paint0_linear_130_2)"/>
<path d="M163.934 12.0451H158.057V4.75603C158.057 2.1294 155.927 0 153.3 0H71.3801V4.93845H151.943C152.592 4.93845 153.119 5.46475 153.119 6.11374V12.0451H82.0147V16.9835H153.119V92.1291H158.057V16.9819H162.576C163.225 16.9819 163.752 17.5082 163.752 18.1572V104.173H168.689V16.7995C168.689 14.1728 166.56 12.0434 163.933 12.0434L163.934 12.0451Z" fill="url(#paint1_linear_130_2)"/>
</g>
<defs>
<linearGradient id="paint0_linear_130_2" x1="37.1773" y1="192.913" x2="134.487" y2="192.913" gradientUnits="userSpaceOnUse">
<stop offset="0.093" stop-color="#C89E47"/>
<stop offset="0.366" stop-color="#EBDCA2"/>
<stop offset="0.397" stop-color="#F0E4AD"/>
<stop offset="0.561" stop-color="#C3953D"/>
<stop offset="0.94" stop-color="#F0E4AD"/>
<stop offset="1" stop-color="#C09134"/>
</linearGradient>
<linearGradient id="paint1_linear_130_2" x1="71.3801" y1="52.0871" x2="168.691" y2="52.0871" gradientUnits="userSpaceOnUse">
<stop offset="0.093" stop-color="#C89E47"/>
<stop offset="0.366" stop-color="#EBDCA2"/>
<stop offset="0.397" stop-color="#F0E4AD"/>
<stop offset="0.561" stop-color="#C3953D"/>
<stop offset="0.94" stop-color="#F0E4AD"/>
<stop offset="1" stop-color="#C09134"/>
</linearGradient>
<clipPath id="clip0_130_2">
<rect width="211" height="245" fill="white"/>
</clipPath>
</defs>
</svg>
